<mxfile host="app.diagrams.net" modified="2023-06-20T03:58:48.790Z" agent="Mozilla/5.0 (Windows NT 10.0; Win64; x64) AppleWebKit/537.36 (KHTML, like Gecko) Chrome/114.0.0.0 Safari/537.36" version="21.3.6" etag="u6xFRo19MlX0NjbUauue" type="github">
  <diagram name="Page-1" id="GB1s6uM45wI3Iao5mb-d">
    <mxGraphModel>
      <root>
        <mxCell id="0" />
        <mxCell id="1" parent="0" />
      </root>
    </mxGraphModel>
  </diagram>
</mxfile>
